<?xml version="1.0" encoding="utf-8"?>
<!-- Generator: Adobe Illustrator 25.4.1, SVG Export Plug-In . SVG Version: 6.00 Build 0)  -->
<svg version="1.1" id="Capa_1" xmlns="http://www.w3.org/2000/svg" xmlns:xlink="http://www.w3.org/1999/xlink" x="0px" y="0px"
	 viewBox="0 0 218.7 39.7" style="enable-background:new 0 0 218.7 39.7;" xml:space="preserve">
<style type="text/css">
	.st0{fill:#FFFFFF;}
</style>
<g>
	<g>
		<rect x="170.2" y="0.3" class="st0" width="0.7" height="39.1"/>
	</g>
	<g>
		<path class="st0" d="M14.8,34.4C6,34.4,0,29,0,20.1S6,5.8,14.8,5.8s14.8,5.5,14.8,14.3S23.5,34.4,14.8,34.4z M14.8,11.2
			c-5.1,0-8.8,3.9-8.8,8.8c0,5.1,3.6,8.8,8.8,8.8s8.8-3.7,8.8-8.8C23.6,15.2,20.1,11.2,14.8,11.2z"/>
		<path class="st0" d="M45.5,23.5c0-3-1.3-4.5-4-4.5c-2.6,0-4.4,2.2-4.4,4.7v10h-5.6V14.5h5l0.2,2.5c1.7-2.2,3.8-2.9,6-2.9
			c4.5,0,8.3,1.9,8.3,9.5v10.2h-5.7L45.5,23.5L45.5,23.5z"/>
		<path class="st0" d="M63.6,29.6c1.6,0,3.6-0.3,5-1.6l3.1,3.5c-2.1,2-5.4,2.8-8.3,2.8c-7,0-10.8-4.2-10.8-10.4c0-5.8,4-10,10.2-10
			c5.8,0,9.8,3.1,9.8,9.4c0,0.8,0,1.7-0.2,2.6H58.4C58.6,28,60.4,29.6,63.6,29.6z M62.8,18.8c-2.3,0-3.9,1.1-4.6,3.1h9.2
			C67.3,20,65.2,18.8,62.8,18.8z"/>
		<path class="st0" d="M88.2,34.4c-10.4,0-14.6-6.7-14.6-14.2c0-7,4.6-14.5,14.6-14.5c3.8,0,7.3,1.5,10.1,4.2l-3.8,3.8
			c-1.7-1.6-4-2.2-6.3-2.2c-6.3,0-8.6,4.8-8.6,8.8s2.2,8.5,8.6,8.5c2.2,0,5-0.9,6.7-2.6l3.8,4.2C95.9,33.3,92.3,34.4,88.2,34.4z"/>
		<path class="st0" d="M105.2,33.8h-5.6V6.4h5.6V33.8z"/>
		<path class="st0" d="M113.5,33.8h-5.6V14.5h5.6V33.8z"/>
		<path class="st0" d="M125.6,34.4c-5.6,0-10.5-3.2-10.5-10.2c0-6.5,4.9-10.2,10.5-10.2c2.8,0,5,0.6,7,2.7l-3.1,3.6
			c-1.2-0.9-2.5-1.1-3.6-1.1c-2.8,0-5,1.8-5,5c0,3.1,2.3,4.8,4.9,4.8c1.2,0,3-0.6,3.9-1.5l3.6,3.7C130.7,33.8,128,34.4,125.6,34.4z"
			/>
		<path class="st0" d="M139.4,22.1l5.7-7.5h6.6v0.3l-7,8.6l8.2,9.7v0.4h-6.7l-6.7-8.5v8.5h-5.6V6.4h5.6V22.1z"/>
		<ellipse class="st0" cx="110.7" cy="9.3" rx="3.2" ry="3.1"/>
	</g>
	<g>
		<rect x="206.6" y="33.6" class="st0" width="0.9" height="6"/>
		<path class="st0" d="M212.3,35.4c-0.6,0-1.1,0.2-1.5,0.7c-0.3,0.4-0.5,0.9-0.5,1.6c0,0.6,0.2,1.1,0.5,1.5c0.4,0.4,0.9,0.6,1.5,0.6
			c0.5,0,1-0.1,1.3-0.3l-0.1-0.6c-0.3,0.1-0.7,0.2-1.1,0.2c-0.4,0-0.7-0.1-0.9-0.3c-0.3-0.2-0.4-0.5-0.4-0.9h2.7c0-0.1,0-0.2,0-0.4
			c0-0.5-0.1-1-0.3-1.3C213.4,35.6,212.9,35.4,212.3,35.4z M211.2,37.1c0-0.3,0.1-0.5,0.3-0.7c0.2-0.2,0.4-0.4,0.7-0.4
			c0.3,0,0.6,0.1,0.7,0.4c0.1,0.2,0.2,0.4,0.2,0.7H211.2z"/>
		<path class="st0" d="M193.8,38c-0.2-0.6-0.4-1-0.8-1.1v0c0.3-0.1,0.6-0.3,0.7-0.5c0.2-0.3,0.4-0.6,0.4-0.9c0-0.5-0.2-0.9-0.5-1.1
			c-0.4-0.3-0.9-0.5-1.7-0.5c-0.6,0-1.1,0-1.5,0.1v5.7h0.9v-2.4h0.6c0.3,0,0.5,0.1,0.7,0.2c0.2,0.1,0.3,0.4,0.4,0.8
			c0.2,0.7,0.3,1.2,0.4,1.4h1c-0.1-0.1-0.1-0.3-0.2-0.6C194,38.8,193.9,38.5,193.8,38z M192.7,36.2c-0.2,0.2-0.5,0.3-0.9,0.3h-0.6
			v-2c0.1,0,0.4-0.1,0.7-0.1c0.8,0,1.2,0.3,1.2,1C193.1,35.8,192.9,36.1,192.7,36.2z"/>
		<path class="st0" d="M196.5,35.4c-0.6,0-1.1,0.2-1.4,0.7c-0.3,0.4-0.5,0.9-0.5,1.6c0,0.6,0.2,1.1,0.5,1.5c0.4,0.4,0.9,0.6,1.5,0.6
			c0.5,0,1-0.1,1.4-0.3l-0.1-0.6c-0.3,0.1-0.7,0.2-1.1,0.2c-0.4,0-0.7-0.1-0.9-0.3c-0.3-0.2-0.4-0.5-0.4-0.9h2.8c0-0.1,0-0.2,0-0.4
			c0-0.5-0.1-1-0.4-1.3C197.5,35.6,197.1,35.4,196.5,35.4z M195.4,37.1c0-0.3,0.1-0.5,0.3-0.7c0.2-0.2,0.4-0.4,0.7-0.4
			c0.3,0,0.6,0.1,0.7,0.4c0.1,0.2,0.2,0.4,0.2,0.7H195.4z"/>
		<path class="st0" d="M216.1,35.6c-0.2,0.2-0.4,0.4-0.5,0.6h0l0-0.8h-0.8c0,0.4,0,0.8,0,1.3v2.8h0.9v-2.2c0-0.3,0.1-0.6,0.2-0.8
			c0.2-0.3,0.4-0.4,0.7-0.4c0.1,0,0.2,0,0.3,0v-0.9c-0.1,0-0.1,0-0.2,0C216.6,35.4,216.3,35.5,216.1,35.6z"/>
		<rect x="208.5" y="33.6" class="st0" width="1" height="6"/>
		<path class="st0" d="M191.8,26.6c0-0.5-0.2-0.9-0.5-1.2c-0.4-0.3-0.9-0.5-1.6-0.5c-0.6,0-1.1,0-1.4,0.1v5.7h0.8v-2.2
			c0.1,0,0.3,0,0.5,0c0.8,0,1.4-0.2,1.8-0.6C191.7,27.6,191.8,27.1,191.8,26.6z M190.6,27.5c-0.2,0.2-0.5,0.3-1,0.3
			c-0.2,0-0.4,0-0.5,0v-2.1c0.2,0,0.4,0,0.6,0c0.4,0,0.7,0.1,0.9,0.3c0.2,0.2,0.3,0.4,0.3,0.8C190.9,27,190.8,27.3,190.6,27.5z"/>
		<path class="st0" d="M218.3,26.8c-0.2-0.3-0.5-0.4-0.9-0.4c-0.3,0-0.6,0.1-0.8,0.2c-0.2,0.1-0.4,0.3-0.5,0.5h0
			c-0.2-0.5-0.6-0.8-1.1-0.8c-0.5,0-1,0.2-1.2,0.7h0l0-0.6h-0.8c0,0.4,0,0.8,0,1.2v3h0.9v-2.5c0-0.3,0.1-0.5,0.2-0.7
			c0.2-0.2,0.4-0.3,0.6-0.3c0.2,0,0.4,0.1,0.6,0.3c0.1,0.2,0.2,0.4,0.2,0.7v2.4h0.9v-2.5c0-0.2,0.1-0.5,0.2-0.7
			c0.2-0.2,0.3-0.3,0.6-0.3c0.5,0,0.8,0.4,0.8,1.2v2.3h0.9v-2.5C218.7,27.6,218.6,27.1,218.3,26.8z"/>
		<path class="st0" d="M194.6,26.5c-0.1,0-0.1,0-0.2,0c-0.2,0-0.5,0.1-0.7,0.2c-0.2,0.2-0.4,0.4-0.5,0.6h0l0-0.8h-0.8
			c0,0.4,0,0.8,0,1.3v2.8h0.9v-2.2c0-0.3,0.1-0.6,0.2-0.8c0.2-0.2,0.4-0.4,0.8-0.4c0.1,0,0.1,0,0.2,0V26.5z"/>
		<path class="st0" d="M204,35.4c-0.5,0-1,0.2-1.3,0.7c-0.3,0.4-0.5,0.9-0.5,1.6c0,0.6,0.2,1.1,0.5,1.5c0.4,0.4,0.8,0.6,1.4,0.6
			c0.5,0,1-0.1,1.4-0.3l-0.1-0.6c-0.3,0.1-0.7,0.2-1.1,0.2c-0.4,0-0.6-0.1-0.8-0.3c-0.3-0.2-0.4-0.5-0.4-0.9h2.7c0-0.1,0-0.2,0-0.4
			c0-0.5-0.1-1-0.4-1.3C205.1,35.6,204.6,35.4,204,35.4z M203,37.1c0-0.3,0.1-0.5,0.3-0.7c0.2-0.2,0.3-0.4,0.6-0.4
			c0.3,0,0.6,0.1,0.7,0.4c0.1,0.2,0.2,0.4,0.2,0.7H203z"/>
		<path class="st0" d="M206.8,25.8c0.2,0,0.3-0.1,0.4-0.2c0.1-0.1,0.2-0.2,0.2-0.4c0-0.2-0.1-0.3-0.2-0.4c-0.1-0.1-0.2-0.2-0.4-0.2
			c-0.2,0-0.3,0.1-0.4,0.2c-0.1,0.1-0.2,0.2-0.2,0.4c0,0.2,0.1,0.3,0.2,0.4C206.5,25.8,206.6,25.8,206.8,25.8z"/>
		<rect x="206.3" y="26.5" class="st0" width="0.9" height="4.1"/>
		<path class="st0" d="M211,30.1L211,30.1l0.1,0.6h0.8c0-0.4,0-0.8,0-1.2v-3h-0.9v2.5c0,0.1,0,0.2-0.1,0.3c-0.2,0.4-0.4,0.6-0.9,0.6
			c-0.5,0-0.8-0.4-0.8-1.2v-2.3h-1V29c0,0.6,0.2,1.1,0.4,1.4c0.2,0.3,0.6,0.4,1,0.4C210.3,30.8,210.7,30.5,211,30.1z"/>
		<path class="st0" d="M200.4,37.2c-0.3-0.1-0.5-0.2-0.6-0.3c-0.1-0.1-0.2-0.2-0.2-0.3c0-0.1,0.1-0.3,0.2-0.3
			c0.1-0.1,0.3-0.1,0.5-0.1c0.3,0,0.6,0.1,0.8,0.2l0.2-0.7c-0.3-0.2-0.6-0.2-1-0.2c-0.5,0-0.8,0.1-1.1,0.4c-0.3,0.2-0.4,0.5-0.4,0.9
			c0,0.5,0.4,0.9,1.1,1.2c0.3,0.1,0.4,0.2,0.5,0.3c0.1,0.1,0.2,0.2,0.2,0.4c0,0.3-0.2,0.5-0.7,0.5c-0.4,0-0.7-0.1-1-0.3l-0.2,0.7
			c0.3,0.2,0.7,0.3,1.2,0.3c0.5,0,0.9-0.1,1.2-0.3c0.3-0.2,0.4-0.5,0.4-0.9C201.5,37.9,201.2,37.4,200.4,37.2z"/>
		<path class="st0" d="M202.8,30.7v-2.5c0-0.2,0.1-0.5,0.2-0.7c0.2-0.2,0.4-0.3,0.5-0.3c0.5,0,0.7,0.4,0.7,1.2v2.3h0.9v-2.5
			c0-0.6-0.1-1.1-0.4-1.4c-0.2-0.3-0.5-0.4-0.9-0.4c-0.3,0-0.5,0.1-0.7,0.2c-0.2,0.1-0.4,0.3-0.5,0.5h0c-0.2-0.5-0.6-0.8-1.1-0.8
			c-0.6,0-1,0.2-1.3,0.7h0l-0.1-0.6h-0.8c0,0.4,0,0.8,0,1.2v3h0.9v-2.5c0-0.3,0.1-0.5,0.2-0.7c0.2-0.2,0.4-0.3,0.6-0.3
			c0.3,0,0.4,0.1,0.6,0.3c0.1,0.2,0.2,0.4,0.2,0.7v2.4H202.8z"/>
		<path class="st0" d="M197,26.4c-0.6,0-1.1,0.2-1.4,0.7c-0.3,0.4-0.5,0.9-0.5,1.6c0,0.6,0.2,1.1,0.5,1.5c0.4,0.4,0.9,0.6,1.5,0.6
			c0.5,0,1-0.1,1.4-0.2l-0.1-0.6c-0.3,0.1-0.7,0.2-1.1,0.2c-0.4,0-0.7-0.1-0.9-0.3c-0.3-0.2-0.4-0.5-0.4-0.9h2.8c0-0.1,0-0.3,0-0.4
			c0-0.5-0.1-1-0.4-1.3C198,26.7,197.6,26.4,197,26.4z M195.9,28.2c0-0.3,0.1-0.5,0.3-0.7c0.2-0.2,0.4-0.4,0.7-0.4
			c0.3,0,0.6,0.1,0.7,0.4c0.1,0.2,0.2,0.4,0.2,0.7H195.9z"/>
		<path class="st0" d="M206.3,3.2c0.7-0.8,1.2-2,1-3.2c-1,0-2.2,0.7-2.9,1.5c-0.7,0.7-1.1,1.9-1,3.1C204.4,4.7,205.6,4,206.3,3.2z"
			/>
		<path class="st0" d="M200.6,19.7c1.2,0,1.7-0.8,3.1-0.8c1.5,0,1.9,0.8,3.3,0.8c1.3,0,2.2-1.2,3.1-2.4c0.9-1.4,1.3-2.8,1.3-2.8
			c0,0-2.6-0.9-2.7-3.9c0-2.4,2.1-3.6,2.2-3.7c-1.1-1.7-3-1.9-3.6-2c-1.6-0.2-3,0.9-3.7,0.9c-0.8,0-2-0.9-3.2-0.8
			c-1.7,0-3.2,1-4.1,2.5c-1.7,2.9-0.4,7.3,1.3,9.8C198.3,18.4,199.3,19.7,200.6,19.7z"/>
	</g>
</g>
</svg>
